# xmcd CD database file
#
# Track frame offsets:
#	150
#	20560
#	43189
#	63650
#
# Disc length: 1148 seconds
#
# Revision: 0
# Processed by: cddbd v1.5.1PL0 Copyright (c) Steve Scherf et al.
# Submitted via: CDex 1.51
#
DISCID=34047a04
DTITLE=RYTHEM - 万華鏡キラキラ
DYEAR=2004
DGENRE=JPop
TTITLE0=万華鏡キラキラ
TTITLE1=ランプツェル
TTITLE2=万華鏡キラキラ(（Instrumental）)
TTITLE3=ラプンツェル（Instrumental）
EXTD=YEAR: 2004
EXTT0=
EXTT1=
EXTT2=
EXTT3=
PLAYORDER=
